<svg width="211" height="6" viewBox="0 0 211 6" fill="none" xmlns="http://www.w3.org/2000/svg">
<mask id="mask0_61_307" style="mask-type:alpha" maskUnits="userSpaceOnUse" x="0" y="0" width="211" height="6">
<rect width="210.547" height="5.6297" fill="#C4C4C4"/>
</mask>
<g mask="url(#mask0_61_307)">
<path d="M31.6249 -1.19066L32.1395 -1.26486L31.1381 -1.37125L31.6181 -1.44913C32.0995 -1.44842 32.7231 -1.33173 33.0625 -1.39373C33.1039 -1.45376 32.5798 -1.47303 32.4461 -1.52086C32.3277 -1.56989 32.2311 -1.61859 32.1574 -1.66639C32.4196 -1.66588 32.7078 -1.65432 33.0049 -1.63239C33.4046 -1.59657 33.7966 -1.57916 34.1377 -1.58207C34.8352 -1.5724 35.5091 -1.58205 36.2675 -1.57992L36.0152 -1.7244L36.9925 -1.6906C37.0961 -1.6796 37.2196 -1.6973 37.3213 -1.68368C38.1684 -1.56847 38.5268 -1.63125 38.9334 -1.68331C39.0168 -1.69677 39.1172 -1.70683 39.232 -1.71321C40.3619 -1.68562 41.3808 -1.52413 42.3984 -1.44123C42.59 -1.42006 42.7737 -1.39289 42.9365 -1.36164C43.2904 -1.3009 43.6841 -1.25131 44.0816 -1.2174C44.479 -1.18349 44.8675 -1.16635 45.2116 -1.16755C45.9724 -1.16889 46.8319 -1.12871 47.707 -1.05091C47.9673 -1.02528 48.2276 -1.00837 48.4716 -1.00126C48.7156 -0.994153 48.9378 -0.996997 49.124 -1.00962L49.7157 -0.927144C49.9721 -0.960609 50.2973 -0.978972 50.6715 -0.981113C51.0457 -0.983255 51.4611 -0.969133 51.8925 -0.939604C52.3522 -0.907571 52.8192 -0.885978 53.2961 -0.85211C54.2814 -0.787364 55.2403 -0.747767 56.143 -0.734549C57.4873 -0.695379 58.8007 -0.665094 60.1569 -0.616259C61.0053 -0.592688 61.832 -0.579723 62.6319 -0.577433C63.5901 -0.568213 64.6266 -0.523579 65.6914 -0.445685C65.6409 -0.372602 65.174 -0.394193 64.8606 -0.396666C63.8498 -0.408813 62.8152 -0.44029 61.7752 -0.463936C61.3067 -0.473166 60.8511 -0.476662 60.411 -0.474398C59.6753 -0.477428 58.8997 -0.496901 58.0975 -0.532485C56.8304 -0.571639 55.6036 -0.59046 54.43 -0.588757C54.338 -0.585861 54.2536 -0.580732 54.1785 -0.573453C54.1628 -0.567149 54.1597 -0.559198 54.1695 -0.550367C54.1792 -0.541535 54.2016 -0.532113 54.2344 -0.523008C54.2671 -0.513904 54.3092 -0.50542 54.3566 -0.498367C54.404 -0.491314 54.4551 -0.485926 54.505 -0.482725C54.9711 -0.433197 55.4718 -0.380002 55.9114 -0.372519C55.9284 -0.37196 55.9465 -0.370684 55.9644 -0.36878C55.9823 -0.366877 55.9996 -0.364394 56.015 -0.361513C56.9991 -0.256954 57.8082 -0.274649 58.5748 -0.257637C59.8476 -0.211661 61.0745 -0.190186 62.237 -0.193535C62.4127 -0.193307 62.6024 -0.187331 62.7993 -0.175821C64.0168 -0.129165 65.1553 -0.123947 66.1614 -0.160403C66.5755 -0.169638 66.9605 -0.190372 67.4055 -0.190719C67.6796 -0.192146 67.9182 -0.205376 68.1069 -0.229619C68.2956 -0.253863 68.4306 -0.288616 68.5037 -0.33179C68.6915 -0.309059 68.8821 -0.288801 69.0734 -0.271258C69.1877 -0.261228 69.2973 -0.258563 69.38 -0.263812C69.4628 -0.269061 69.5125 -0.281831 69.5192 -0.299539C69.5535 -0.349131 69.2927 -0.374036 69.0665 -0.395272C69.2029 -0.405908 69.3567 -0.412164 69.5241 -0.413892C70.4669 -0.425223 71.4782 -0.411849 72.5359 -0.374062C73.3571 -0.328832 74.0127 -0.365647 74.8767 -0.301863C74.9803 -0.290857 75.0656 -0.307012 75.1609 -0.31089C75.4095 -0.331317 75.7192 -0.335907 76.0632 -0.324262C76.4071 -0.312617 76.7749 -0.285087 77.1347 -0.24406C77.5828 -0.356147 78.5507 -0.228097 79.2655 -0.216589C79.4856 -0.159587 79.233 -0.169607 79.2222 -0.153947C79.2114 -0.138286 79.2222 -0.15395 79.1359 -0.163122C78.4222 -0.0823974 77.4445 -0.0647949 76.3398 -0.112789C76.1355 -0.11259 75.9409 -0.108912 75.7577 -0.101792C75.4803 -0.0917139 75.1676 -0.0927198 74.8332 -0.104767C74.4677 -0.113614 74.1321 -0.109412 73.8424 -0.092364C73.6757 -0.0926412 73.5347 -0.0841005 73.4326 -0.067528C73.3304 -0.0509552 73.2704 -0.0268869 73.258 0.00243882C73.3693 0.0250467 73.4927 0.0457329 73.6234 0.0636767C74.3058 0.134525 74.9863 0.163852 75.531 0.145885C76.479 0.114929 77.6072 0.145137 78.6152 0.134569C79.2966 0.130288 80.0218 0.142483 80.7769 0.170926C80.7769 0.170926 80.757 0.199637 80.7552 0.202247C80.8445 0.214678 80.9384 0.224652 81.0315 0.231597C81.0315 0.231597 81.0315 0.231598 81.0405 0.218547C80.9991 0.206014 80.943 0.194224 80.8787 0.184543L80.6542 0.160695C80.8067 0.154489 80.9493 0.136012 81.1083 0.147301C81.4432 0.168274 81.7634 0.177129 82.0495 0.173338C82.3355 0.169547 82.5816 0.153187 82.7728 0.125241C83.1118 0.0894225 83.5334 0.0731338 84.0105 0.077427C84.376 0.0735166 84.7283 0.0651122 85.0656 0.0522561C85.0656 0.0522561 85.0873 0.0209375 85.2471 0.00429087C85.0958 -0.0162396 84.938 -0.0330043 84.7809 -0.0452349C84.0978 -0.0757893 83.4129 -0.103734 82.7416 -0.124624C82.4944 -0.126881 82.2619 -0.12338 82.0487 -0.114192C81.4581 -0.103439 80.7946 -0.1187 80.0968 -0.159085C80.0968 -0.159085 79.9587 -0.173759 79.8896 -0.181096C80.0854 -0.249944 80.7605 -0.181019 81.0337 -0.227645C81.1999 -0.226796 81.4924 -0.220933 81.4823 -0.233208C81.4596 -0.249587 81.4568 -0.264804 81.4744 -0.277767C81.4919 -0.290729 81.5292 -0.301115 81.5837 -0.308181C81.6382 -0.315246 81.7084 -0.318819 81.7895 -0.318637C81.8705 -0.318455 81.9602 -0.314524 82.0523 -0.30713C82.8208 -0.267129 83.5446 -0.256006 84.1795 -0.27444C84.4201 -0.274084 84.6899 -0.262229 84.9288 -0.259263C85.075 -0.25569 85.2085 -0.257677 85.322 -0.265113C85.8992 -0.319882 86.6758 -0.323882 87.5352 -0.276512C87.9506 -0.259481 88.3387 -0.257204 88.6796 -0.269796C88.922 -0.27205 89.0248 -0.233111 89.1975 -0.214767L89.9306 -0.176098L88.9891 -0.127646C89.1904 -0.0166072 89.3504 0.020006 89.6792 0.0269233C90.1588 0.0373702 90.6259 0.0420896 91.0779 0.0410528C91.4121 0.0401399 91.688 0.0162271 92.1405 0.0587006C92.2205 0.0656279 92.2975 0.0678703 92.3585 0.065051C92.8884 0.0273442 93.5265 0.0186897 94.2293 0.0396803C94.5931 -0.0309289 95.2129 0.0377214 95.7862 0.0930355C95.9712 0.0398476 95.6359 0.0154331 95.436 -0.0170195C95.9155 -0.0136986 96.3987 -0.0155952 96.8937 -0.00782846C97.0426 -0.010656 97.2128 -0.00581937 97.3909 0.0063006C97.569 0.0184194 97.7502 0.0374899 97.9203 0.0620211C98.0032 0.0778718 98.1031 0.089801 98.1994 0.0953321C98.2956 0.100863 98.3808 0.0995725 98.4372 0.0917286C98.6941 0.0685937 99.1056 0.0899021 99.3179 0.0508238C99.3934 0.041836 99.5013 0.0405817 99.6223 0.0472785C99.7434 0.0539764 99.8696 0.0681924 99.9784 0.0873783C99.8592 0.0933646 99.7532 0.102791 99.6625 0.11545C99.3376 0.156573 99.4569 0.225285 99.8697 0.32518C100.504 0.319686 101.151 0.321246 101.739 0.302419C102.066 0.285518 102.467 0.290802 102.897 0.317675C103.327 0.34455 103.769 0.391949 104.172 0.454543C104.319 0.478613 104.485 0.495283 104.639 0.501245C104.793 0.507207 104.923 0.502023 105.003 0.486721C105.053 0.469022 105.068 0.446624 105.048 0.421468L104.633 0.377444C104.633 0.377444 104.65 0.353954 104.653 0.348733L105.249 0.344787C105.564 0.34465 105.893 0.351569 106.191 0.349598C106.628 0.336489 107.128 0.343796 107.659 0.371066C108.148 0.39903 108.629 0.420166 109.098 0.43429C109.551 0.448828 109.879 0.402483 110.311 0.395082C110.637 0.389502 110.996 0.395464 111.373 0.412735C112.026 0.443364 112.625 0.443421 113.115 0.412899C113.687 0.577344 113.965 0.604082 114.496 0.559646L114.746 0.546953L114.814 0.582224L115.005 0.574467C115.362 0.567558 115.719 0.560653 116.091 0.558189C116.609 0.57345 117.168 0.614509 117.714 0.677356C117.817 0.688362 117.958 0.725756 118.049 0.755033C118.14 0.78431 118.339 0.872631 118.484 0.930126C118.326 0.972097 118.15 1.01223 118.024 1.06048C118.011 1.06873 118.012 1.07856 118.027 1.08918C118.042 1.09981 118.071 1.11093 118.11 1.12166C118.15 1.1324 118.199 1.14243 118.254 1.15097C118.31 1.15951 118.37 1.16631 118.429 1.17082C118.545 1.18055 118.66 1.18704 118.768 1.19001C119.302 1.19515 119.812 1.19133 120.296 1.17861C120.472 1.16066 120.714 1.15895 120.982 1.17376C121.251 1.18858 121.53 1.21906 121.777 1.26038C122.41 1.23558 123.144 1.24291 123.931 1.28186C124.763 1.25817 125.767 1.30608 126.544 1.25417C126.526 1.28027 126.607 1.32521 126.718 1.3511C126.895 1.39043 127.096 1.42687 127.311 1.4589L128.954 1.52142C129.016 1.55357 129.093 1.58612 129.184 1.61863C129.246 1.64432 129.355 1.66945 129.487 1.68871C129.619 1.70796 129.764 1.71983 129.891 1.72178C130.218 1.73131 130.492 1.71001 130.882 1.76264C130.281 1.81239 129.472 1.80578 128.597 1.74398C127.775 1.69699 126.984 1.6735 126.254 1.6744C126.013 1.67404 125.696 1.67678 125.621 1.70521C125.455 1.78556 125.019 1.77286 124.51 1.75804C124.11 1.74181 123.745 1.74363 123.445 1.76335C123.145 1.78307 122.917 1.82011 122.782 1.87145C122.748 1.92104 122.83 1.96337 123.181 1.99222L124.639 2.10794C124.854 2.09306 125.058 2.07545 125.25 2.05518C125.573 2.02826 125.973 2.02087 126.417 2.03358C126.862 2.0463 127.339 2.07879 127.812 2.12851C128.054 2.15419 128.296 2.17987 128.471 2.16767C128.625 2.15365 128.766 2.13687 128.895 2.11745C128.921 2.10443 128.931 2.08945 128.925 2.07307C129.018 2.08069 129.111 2.09058 129.202 2.10242C129.922 2.24056 130.479 2.23817 130.986 2.20234C131.123 2.19169 131.227 2.17476 131.366 2.1615C131.505 2.14824 131.554 2.13103 131.68 2.13604C132.687 2.18134 132.977 2.03003 133.825 2.0361C133.866 2.03019 133.892 2.02136 133.899 2.01041C133.907 1.99946 133.896 1.98676 133.868 1.97346C133.808 1.96146 133.739 1.95114 133.666 1.94344C133.594 1.93575 133.521 1.93093 133.454 1.92944C133.063 1.91002 132.719 1.91597 132.478 1.94628C132.308 1.95867 132.128 1.96853 131.939 1.97583L131.09 1.75671C131.913 1.7768 132.691 1.77667 133.407 1.75632C133.563 1.74489 133.827 1.76458 134.047 1.76832L135.664 1.7888C135.996 1.7905 136.279 1.75615 136.743 1.83622C136.743 1.83622 137.049 1.84913 137.131 1.8382C137.212 1.82727 137.574 1.75927 137.79 1.71497C138.041 1.7276 138.388 1.76168 138.544 1.75025C138.817 1.72219 139.053 1.68621 139.248 1.64296L140.225 1.7047C140.224 1.75954 140.188 1.81114 140.119 1.8587C140.042 1.90456 140.045 1.95962 140.126 2.01937C140.207 2.07912 140.365 2.14186 140.585 2.20246L141.55 2.52345C141.707 2.54495 141.875 2.55942 142.03 2.5649C142.185 2.57038 142.321 2.5666 142.418 2.55408C142.833 2.51691 143.298 2.48785 143.713 2.45068C144.248 2.50754 144.11 2.59939 144.499 2.67996L145.76 2.81386C145.952 2.93795 146.148 3.05682 145.563 3.09836C145.447 3.10563 145.525 3.15318 145.419 3.17272C145.874 3.26584 146.373 3.29372 146.834 3.35107C147.016 3.39232 147.168 3.43599 147.282 3.47996C147.409 3.54616 147.664 3.61379 147.994 3.66825C148.324 3.72269 148.702 3.75959 149.046 3.77097C149.623 3.80583 150.214 3.85819 150.792 3.9257C150.99 3.94918 151.193 3.96628 151.387 3.97586C151.582 3.98544 151.764 3.98727 151.921 3.98123C152.481 3.97061 152.954 3.93405 153.311 3.87395C153.664 3.82295 154.14 3.79837 154.695 3.80244C155.645 3.90333 155.836 4.05536 156.411 4.18926L155.418 4.20427C155.382 4.25647 155.448 4.32229 155.041 4.32109C154.634 4.31988 154.84 4.36983 154.972 4.42027C155.019 4.44564 155.11 4.47174 155.229 4.49415C155.349 4.51656 155.49 4.5339 155.629 4.54323L156.474 4.6078C156.773 4.63237 157.063 4.64286 157.312 4.63812C157.56 4.63338 157.758 4.61359 157.882 4.58094C158.025 4.54992 158.223 4.52895 158.462 4.51929C158.768 4.49399 159.019 4.45637 159.206 4.40784L160.399 4.47854C160.45 4.42978 160.614 4.39558 160.863 4.38174C161.112 4.3679 161.432 4.37526 161.767 4.40258L162.571 4.44598C163.465 4.49333 163.661 4.47774 163.923 4.34025L162.851 4.09467C163.007 4.02999 163.157 3.97313 163.308 3.91627C163.041 3.83537 162.685 3.75884 162.275 3.69447C161.893 3.6253 161.5 3.55832 161.098 3.49376C160.662 3.4278 160.201 3.37044 159.659 3.29608C159.565 3.27202 159.427 3.22941 159.252 3.18835C159.076 3.14845 158.893 3.10934 158.703 3.07117C158.739 3.01897 158.771 2.97199 158.702 2.91139C159.036 2.93072 159.38 2.96454 159.705 3.00979C160.029 3.05504 160.324 3.1103 160.561 3.17059C160.601 3.18129 160.65 3.19133 160.705 3.20004C160.76 3.20876 160.819 3.21594 160.879 3.22111C161.465 3.25815 161.745 3.33554 162.031 3.43042C162.224 3.47893 162.473 3.522 162.743 3.55367C163.261 3.6087 163.768 3.67939 164.263 3.74042C164.415 3.76076 164.573 3.7775 164.73 3.78995C165.247 3.82954 165.768 3.8849 166.266 3.95321C166.429 3.97057 166.585 3.99355 166.721 4.02022C166.857 4.04689 166.97 4.07647 167.05 4.10651C166.926 4.13941 166.86 4.18095 166.854 4.22862C166.833 4.25994 167.196 4.32379 167.368 4.37007C167.54 4.41635 167.203 4.39454 167.088 4.39919C166.619 4.40815 166.532 4.42691 166.813 4.52963C166.907 4.56192 166.969 4.59424 166.996 4.62457C167.023 4.65489 167.014 4.68258 166.969 4.70592C166.903 4.80249 166.7 4.88178 166.56 4.97624C166.777 5.03846 167.138 5.10491 167.178 5.18195C167.197 5.19904 167.237 5.21714 167.295 5.23496C167.353 5.25277 167.428 5.26984 167.514 5.28495C167.742 5.31755 167.948 5.35654 168.118 5.39889C168.288 5.44125 168.417 5.48583 168.495 5.52919C168.52 5.54712 168.581 5.56614 168.666 5.58245C168.751 5.59875 168.854 5.61113 168.953 5.61709C169.071 5.62442 169.177 5.62345 169.249 5.61439C169.321 5.60533 169.353 5.58887 169.339 5.56842C169.341 5.52999 169.326 5.48992 169.292 5.44857C169.311 5.41986 169.331 5.39114 169.253 5.3436C169.607 5.36095 169.978 5.39572 170.327 5.44415C170.676 5.49257 170.989 5.55278 171.231 5.61825C171.5 5.68597 171.747 5.75709 172.045 5.83631C171.983 5.92506 171.983 5.92505 172.616 6.08195L175.973 6.15847L176.661 6.26239C177.303 6.35297 177.455 6.34677 177.858 6.29993L178.13 6.25591C178.699 6.31645 179.356 6.38615 179.712 6.27273C179.828 6.34666 179.903 6.37149 179.877 6.38271C179.707 6.49181 179.411 6.58438 179.002 6.65676C178.897 6.67369 178.824 6.6995 178.702 6.7146C178.31 6.79979 178.219 6.93145 178.448 7.08262C178.562 7.14952 178.727 7.21802 178.938 7.28593C178.629 7.38017 178.22 7.45824 177.721 7.51807C177.298 7.56436 176.949 7.62635 176.686 7.70225C176.449 7.77879 176.094 7.83632 175.642 7.87154C175.413 7.88652 175.245 7.91607 175.157 7.95725C175.13 8.06873 175.191 8.18808 175.337 8.31265C175.365 8.35056 175.443 8.3915 175.566 8.43227C175.689 8.47304 175.853 8.51253 176.046 8.54764C176.046 8.54764 176.139 8.57431 176.183 8.59025C176.221 8.72524 176.082 8.84422 175.776 8.93916C175.725 8.9661 175.623 8.98556 175.479 8.99544C175.335 9.00532 175.155 9.00525 174.959 8.99523C174.543 8.97914 174.156 8.97716 173.754 8.96812C173.321 8.95535 172.94 8.96542 172.651 8.99728C172.362 9.02914 172.174 9.08162 172.109 9.14919C172.105 9.16832 172.092 9.18664 172.072 9.204C172.059 9.21295 172.053 9.22256 172.052 9.23271L172.974 9.45395L171.931 9.54204C171.869 9.63078 172.37 9.68398 172.621 9.74987L172.466 9.78662C172.266 9.80743 171.997 9.76764 171.754 9.74457L171.512 9.71889L171.483 9.76065C171.333 9.81751 170.784 9.75359 170.57 9.79528C170.355 9.83697 170.508 9.88402 170.829 9.92931C171.052 9.96298 171.292 9.98982 171.53 10.0078C171.768 10.0258 171.998 10.0345 172.203 10.0332C172.325 10.0288 172.427 10.0186 172.501 10.0033C172.934 9.9383 173.413 9.88239 173.933 9.83602C174.332 9.79438 174.831 9.77666 175.396 9.78413C175.561 9.78098 175.761 9.79085 175.96 9.81198C176.159 9.83312 176.344 9.86417 176.483 9.89969L176.776 9.90555C176.776 9.90555 176.936 9.94216 176.913 9.94816C176.802 10.0566 176.931 10.1892 177.282 10.3264L176.977 10.3388C176.541 10.3261 176.817 10.4087 176.752 10.4494C176.443 10.4417 176.04 10.4073 175.893 10.459L175.673 10.4552L175.76 10.4644L175.864 10.4475L176.274 10.5246C176.08 10.5376 175.939 10.5535 175.767 10.5605C175.673 10.5665 175.597 10.5773 175.546 10.592C175.494 10.6067 175.467 10.6252 175.467 10.6462C175.468 10.6786 175.417 10.7059 175.319 10.7254C175.221 10.7449 175.08 10.7561 174.908 10.7578C174.704 10.7585 174.587 10.7937 174.467 10.8061L174.988 11.0184C174.988 11.0184 174.729 10.9908 174.87 11.0282L174.888 11.0021L175.203 11.0553C175.431 11.1018 175.589 11.1131 175.724 11.0797C175.858 11.0464 175.827 11.0907 175.892 11.078C175.868 11.1119 175.722 11.1356 175.597 11.1559C175.452 11.1719 175.289 11.1836 175.109 11.191C175.433 11.3402 175.448 11.3446 174.976 11.3841C174.504 11.4236 174.667 11.483 174.272 11.4914C173.877 11.4999 174.326 11.6008 174.59 11.6205C174.786 11.6335 174.986 11.6536 175.176 11.6796C175.366 11.7056 175.542 11.7368 175.691 11.7711L175.612 11.8859C175.495 11.8764 175.379 11.864 175.266 11.8492C174.884 11.7861 174.535 11.7267 174.195 11.7634L174.357 11.8507L173.169 11.8001C173.2 11.8655 173.381 11.94 173.674 12.0079C173.63 12.0451 173.603 12.0844 173.593 12.1253C173.573 12.154 173.456 12.136 173.38 12.1391C173.107 12.1439 172.884 12.1633 172.729 12.1957C172.574 12.2281 172.493 12.2725 172.491 12.3249C172.461 12.3692 172.879 12.4613 173.141 12.4583C173.794 12.4671 174.5 12.5013 175.221 12.5588C175.66 12.5663 175.723 12.4496 176.446 12.5293C176.46 12.5832 176.368 12.6268 176.182 12.6535C175.996 12.6803 175.728 12.6888 175.417 12.6777C175.593 12.7973 176.573 12.8285 176.616 12.9536C176.372 12.9448 176.111 12.924 175.86 12.8933C175.608 12.8626 175.374 12.8231 175.18 12.7786C175.138 12.7677 175.086 12.7576 175.028 12.7493C174.97 12.741 174.907 12.7347 174.847 12.7311C174.787 12.7275 174.73 12.7266 174.683 12.7286C174.635 12.7306 174.598 12.7353 174.575 12.7424C174.711 12.7876 174.86 12.8399 175.03 12.8888C175.2 12.9376 175.241 12.9588 175.364 12.969C176.279 13.0663 176.714 13.2414 177.505 13.3563C177.713 13.3783 177.738 13.4483 177.558 13.4404C177.387 13.4325 177.232 13.4335 177.111 13.4434C176.99 13.4532 176.907 13.4715 176.871 13.4962C176.738 13.525 176.573 13.548 176.379 13.5644C177.191 13.7441 178.159 13.9029 179.192 14.0258C179.388 14.0501 179.592 14.0649 179.775 14.0681C180.352 14.0683 180.964 14.0825 181.599 14.1106C181.824 14.1182 182.032 14.1175 182.212 14.1085C182.801 14.087 183.269 14.134 183.697 14.2662L184.404 14.4759C184.381 14.5098 184.262 14.5476 184.17 14.5996L184.723 14.7115L188.941 14.4537L189.788 14.7033L191.002 14.6895C191.095 14.6967 191.189 14.7066 191.279 14.7188C191.524 14.7925 191.716 14.8634 191.983 14.9337C192.249 15.004 192.725 15.0126 193.057 15.0955C193.389 15.1783 193.721 15.18 194.132 15.2293C194.171 15.2935 194.131 15.3512 194.015 15.3989C193.977 15.4538 193.768 15.4876 193.732 15.5398C193.736 15.5926 193.659 15.6374 193.506 15.6701C193.354 15.7029 193.133 15.7226 192.861 15.7275C192.101 15.8398 191.185 15.9198 190.14 15.965C190.048 15.9683 189.972 15.9759 189.916 15.9873C189.86 15.9987 189.826 16.0138 189.816 16.0315C189.817 16.0827 189.748 16.1269 189.612 16.161C189.476 16.195 189.278 16.218 189.031 16.2283C188.966 16.2303 188.916 16.2368 188.889 16.2467C188.795 16.2532 188.727 16.2655 188.691 16.2826C188.655 16.2996 188.652 16.3208 188.682 16.344C188.713 16.3673 188.776 16.3918 188.865 16.4153C188.955 16.4387 189.067 16.4603 189.192 16.4779C189.374 16.5063 189.559 16.5335 189.748 16.5593C189.737 16.575 189.55 16.5775 189.577 16.5916C189.651 16.6367 189.668 16.6789 189.627 16.7149C189.586 16.7509 189.488 16.7797 189.341 16.7991L190.349 17.164C190.961 17.2145 191.561 17.3002 192.036 17.4048C192.037 17.422 192.009 17.4363 191.957 17.4465C191.904 17.4566 191.828 17.4622 191.737 17.4627C191.49 17.4702 191.258 17.4847 190.993 17.4929C190.831 17.4991 190.696 17.5127 190.596 17.5328C190.496 17.553 190.433 17.5794 190.411 17.6104L191.003 17.7462C190.814 17.7793 190.673 17.7951 190.548 17.8154C190.619 17.8581 190.741 17.9022 190.904 17.9444C191.068 17.9866 191.269 18.0256 191.492 18.0586C191.551 18.0654 191.612 18.0704 191.671 18.0732C191.729 18.0761 191.784 18.0768 191.832 18.0752C192.291 18.0287 192.827 18.1108 193.348 18.1886C193.869 18.2663 194.151 18.3132 194.536 18.3736L195.271 18.3818C195.458 18.4104 195.624 18.4441 195.757 18.4801C195.889 18.5161 195.985 18.5534 196.036 18.5891C195.997 18.6465 195.648 18.6151 195.44 18.621C194.946 18.6567 194.298 18.6491 193.601 18.5994C193.429 18.581 193.252 18.5958 193.084 18.5976C192.721 18.6047 192.373 18.6164 192.04 18.6324C191.821 18.6474 191.617 18.6659 191.428 18.6878C191.377 18.7609 192.172 18.8173 191.721 18.8534C191.876 18.87 191.935 18.893 192.014 18.8846C192.526 18.9321 193.03 18.9556 193.469 18.9523C194.31 18.9422 195.265 18.9755 196.256 19.0495C197.325 19.1261 198.351 19.1583 199.249 19.1433C199.59 19.1425 199.973 19.1582 200.366 19.1892C200.83 19.2322 201.291 19.2593 201.719 19.2686C201.861 19.2689 202.019 19.2762 202.18 19.29C202.342 19.3037 202.501 19.3234 202.647 19.3475C202.635 19.3658 202.496 19.3791 202.527 19.388C202.97 19.5247 203.149 19.667 203.831 19.8067C204.297 19.8563 204.832 19.9131 205.137 19.8474C205.442 19.7818 205.333 19.7253 204.726 19.5572C204.858 19.5548 205.016 19.5627 205.174 19.5794C205.332 19.5962 205.479 19.6208 205.589 19.6489L206.114 19.7747L206.587 19.895C206.545 19.955 206.513 20.002 206.479 20.0516C206.425 20.1043 206.484 20.1684 206.649 20.235C206.748 20.2713 206.834 20.3076 206.907 20.3437C207.203 20.4878 207.288 20.6239 207.154 20.737C206.898 20.8995 206.54 21.049 206.086 21.1838C205.606 21.3149 205.343 21.4803 204.948 21.6232C204.747 21.6883 204.502 21.7467 204.216 21.7976C203.675 21.911 203.081 22.0188 202.538 22.1348C201.994 22.2508 201.381 22.3341 200.777 22.4296C199.879 22.5431 198.907 22.641 197.869 22.723C197.226 22.7948 196.566 22.8648 195.972 22.9473C195.27 23.0403 194.445 23.1071 193.518 23.1461C192.699 23.1926 191.968 23.2616 191.338 23.3514C191.272 23.3612 191.219 23.3735 191.183 23.3882C191.069 23.4799 190.751 23.5445 190.277 23.5722C190.306 23.599 190.343 23.6263 190.387 23.6539C190.453 23.6869 190.467 23.7177 190.427 23.7424C190.386 23.7671 190.294 23.7845 190.162 23.7925C189.783 23.8152 189.468 23.8537 189.231 23.9065C189.144 23.9197 189.09 23.9389 189.073 23.9626C189.057 23.9862 189.079 24.0135 189.137 24.0422C189.188 24.0717 189.192 24.0988 189.148 24.1201C189.103 24.1413 189.013 24.1557 188.888 24.1614C188.567 24.1893 188.223 24.2118 187.859 24.2286C187.084 24.2658 186.183 24.2653 185.21 24.2273C185.106 24.2163 185.002 24.2332 184.881 24.2204C184.193 24.1778 183.554 24.1712 183.041 24.2014C182.44 24.2132 181.811 24.2108 181.178 24.2163C180.262 24.2126 179.417 24.2351 178.667 24.283C177.809 24.2367 177.327 24.3172 176.603 24.3187C175.935 24.327 175.302 24.3468 174.709 24.378C173.754 24.4194 172.802 24.4556 171.861 24.504C170.978 24.5271 170.164 24.5713 169.435 24.6357C169.155 24.6648 168.649 24.6195 168.459 24.6805C168.268 24.7415 167.884 24.7343 167.574 24.7545L166.594 24.8045C166.426 24.8164 166.24 24.824 166.041 24.827C165.13 24.8311 164.499 24.9126 163.654 24.9292L163.568 24.92C162.066 25.0412 160.349 25.1076 158.465 25.1175C157.364 25.1547 156.161 25.1529 154.993 25.1801C154.714 25.2346 154.056 25.1675 153.707 25.2172C153.358 25.2669 152.787 25.2343 152.337 25.2425C151.886 25.2507 151.446 25.2711 150.965 25.2704C150.547 25.2706 150.194 25.2929 149.938 25.335C149.354 25.4047 148.642 25.4457 147.834 25.4561C146.765 25.4742 145.755 25.5153 144.667 25.5063C144.683 25.5571 144.616 25.6003 144.474 25.6315C144.332 25.6627 144.12 25.6807 143.859 25.6838C142.697 25.7032 141.643 25.7537 140.465 25.7686L140.15 25.7687L136.627 25.7979C135.678 25.8035 134.763 25.8128 133.795 25.8192C133.433 25.7807 133.424 25.847 133.173 25.8344C133.103 25.8017 133.02 25.7873 132.897 25.805L132.87 25.8442L128.85 25.8961C127.275 25.9341 125.62 25.9455 123.896 25.9302C123.488 25.934 123.106 25.947 122.758 25.9689C122.435 25.9769 122.098 25.9804 121.75 25.9795C121.278 25.9696 120.818 25.9646 120.37 25.9646C119.192 25.9795 117.956 25.9715 116.666 25.9605C115.377 25.9496 114.4 25.969 113.252 25.9675C112.474 25.9662 111.7 25.9596 110.896 25.9441C110.511 25.9369 110.038 25.8978 109.64 25.8836C109.242 25.8693 109.113 25.8695 109.06 25.892C108.887 25.9548 108.452 25.9142 108.104 25.9081C107.425 25.8976 107.329 25.8762 107.145 25.7137L107.977 25.6621C108.181 25.6454 108.438 25.6425 108.722 25.6536C109.007 25.6646 109.31 25.6894 109.601 25.7254C109.716 25.7408 109.836 25.753 109.955 25.7612C110.073 25.7695 110.187 25.7736 110.291 25.7734C111.131 25.7646 111.959 25.7461 112.766 25.7311L112.884 25.7212L112.892 25.5763C112.785 25.5621 112.674 25.5503 112.564 25.5414L108.515 25.4474C107.585 25.4243 106.621 25.3723 105.709 25.351C104.797 25.3298 104.305 25.3168 103.598 25.2948C103.299 25.2823 102.995 25.2659 102.687 25.2456C102.704 25.2317 102.715 25.2169 102.717 25.2013C102.734 25.1778 102.755 25.1465 102.624 25.1213C102.481 25.0859 102.291 25.0556 102.09 25.0365C101.901 25.024 101.718 25.0168 101.548 25.0154C100.727 25.0033 99.7892 24.9268 98.9345 24.8022L98.6361 24.8853C97.3526 24.8386 96.05 24.7927 94.7092 24.7483C94.4408 24.7362 94.159 24.7129 93.8852 24.6803C93.5917 24.6491 93.3216 24.584 93.0126 24.5484C92.7073 24.5228 92.4041 24.5028 92.1087 24.4888C92.1887 24.4674 92.2942 24.4503 92.4218 24.438C92.5474 24.4337 92.6388 24.4203 92.683 24.3998C92.7271 24.3793 92.7217 24.3528 92.6673 24.324C92.5717 24.2746 92.5297 24.2281 92.7377 24.2222C92.9298 24.2109 93.0672 24.1866 93.1338 24.1519C93.2004 24.1173 93.1934 24.0739 93.1135 24.0268C93.0785 23.9993 93.0538 23.9723 93.0396 23.9461L92.9532 23.9369C92.6685 23.8394 92.0998 23.8042 91.6916 23.7244C91.499 23.7013 91.2996 23.688 91.1247 23.6866C90.6732 23.6695 90.2336 23.662 89.7667 23.6404C89.5437 23.6305 89.3105 23.6123 89.0807 23.5871C88.7527 23.5523 88.7182 23.5486 88.5277 23.4219C88.8235 23.4241 89.058 23.4052 89.1915 23.3683C89.3251 23.3315 89.3495 23.2789 89.2606 23.2196C89.0165 23.09 88.7588 22.9534 87.6549 22.8613C88.0148 22.8567 88.3613 22.8477 88.6928 22.8343C88.7892 22.8314 88.8614 22.8219 88.8997 22.807C88.9381 22.7921 88.9406 22.7726 88.9072 22.7511C88.8737 22.7295 88.8057 22.707 88.7123 22.6865C88.619 22.666 88.5047 22.6484 88.3848 22.6363C87.8022 22.5629 87.1943 22.5139 86.6295 22.4946C86.1536 22.486 85.724 22.4908 85.1682 22.4906L84.5121 22.4209C84.5229 22.4052 84.4266 22.3838 84.451 22.3752C84.6177 22.2948 84.8017 22.2163 84.991 22.13C84.6886 22.0834 84.4265 22.0271 84.2349 21.9676C84.0433 21.9081 83.9299 21.8478 83.9077 21.7935C83.8914 21.7772 83.8956 21.7623 83.9202 21.7499C83.9448 21.7375 83.9891 21.7279 84.0499 21.7218C84.2226 21.7113 84.356 21.6913 84.4396 21.6633C84.5232 21.6352 84.5549 21.5999 84.5323 21.5601L84.0221 21.4135C82.4859 21.3088 80.9774 21.234 79.5244 21.1906L78.2128 21.1577C78.0546 21.1184 78.1036 21.1012 78.2525 21.1002C78.4015 21.0993 78.8202 21.1101 79.1127 21.116C79.3652 21.1237 79.5895 21.1186 79.7638 21.1013C79.9382 21.084 80.0565 21.055 80.1075 21.0172L79.6671 20.8499C79.6888 20.8186 79.7194 20.7742 79.9583 20.7772C80.1215 20.7735 80.2417 20.7578 80.2996 20.7324C80.3575 20.707 80.3496 20.6736 80.2773 20.6374C80.2663 20.6112 80.2828 20.5873 80.326 20.5669C80.6792 20.5652 81.0307 20.5661 81.3513 20.5582C81.5006 20.5555 81.6266 20.5458 81.7209 20.5297C81.8151 20.5136 81.8754 20.4915 81.8975 20.4649C81.9091 20.4389 81.8809 20.4093 81.8153 20.3785C81.7496 20.3477 81.6484 20.3165 81.5197 20.2875C81.0173 20.2516 80.5578 20.2511 80.2419 20.2862C80.1293 20.3137 79.9484 20.3287 79.723 20.3293C79.4976 20.3298 79.2384 20.3159 78.9795 20.2893C78.6831 20.2587 78.3872 20.2453 78.1452 20.2514C77.9031 20.2575 77.7309 20.2828 77.6592 20.3228C77.3549 20.3072 77.0851 20.2954 76.8189 20.2783C76.5049 20.2568 76.2081 20.2504 75.9605 20.26C75.5645 20.2667 75.1378 20.2628 74.6899 20.2482C73.3992 20.212 72.1067 20.1783 70.8569 20.1632C70.5263 20.1589 70.2403 20.1705 69.9133 20.161C69.5863 20.1514 69.3276 20.1772 68.9186 20.1253C68.8408 20.1173 68.7624 20.1121 68.6897 20.1102C68.617 20.1083 68.552 20.1098 68.4999 20.1145C67.7818 20.1555 66.9397 20.1613 66.0233 20.1315C64.7682 20.1242 63.4666 20.1036 62.2097 20.0989C61.841 20.103 61.4926 20.1137 61.1681 20.1312C60.9212 20.1417 60.6626 20.1488 60.3936 20.1525C60.1874 20.1558 59.9902 20.1461 60.025 20.203C60.0598 20.26 59.7509 20.2243 59.5728 20.2138C58.9611 20.1862 58.3359 20.1488 57.7041 20.1021C57.0817 20.0514 56.4718 20.0218 55.9109 20.0153C55.5058 20.0114 55.0882 20.0259 54.5674 19.9482C54.5872 19.9194 54.607 19.8907 54.7204 19.8608C54.2957 19.7783 53.8111 19.7073 53.3067 19.6537C52.8023 19.6001 52.2927 19.5654 51.8199 19.5526L51.1679 19.3965C51.0074 19.3781 50.8435 19.3648 50.6862 19.3572C50.529 19.3497 50.3816 19.3481 50.2531 19.3525C50.1538 19.3548 50.0328 19.349 49.9123 19.3362C49.7918 19.3233 49.6798 19.3044 49.597 19.2828C49.4732 19.2553 49.322 19.2316 49.1623 19.2146C49.0026 19.1977 48.8416 19.1882 48.6993 19.1874C48.2513 19.1704 47.7731 19.1312 47.3137 19.0738C47.1945 19.0401 47.1198 19.0054 47.0988 18.9738C47.0778 18.9422 47.1115 18.9151 47.1957 18.896C47.3314 18.8621 47.4076 18.819 47.4197 18.7693C47.4318 18.7195 47.3795 18.6641 47.266 18.6065C47.2078 18.5711 47.1884 18.5375 47.2089 18.5079C47.2293 18.4783 47.2892 18.4532 47.385 18.4342C47.7424 18.3461 47.6468 18.2967 47.062 18.1505C46.9671 18.1262 46.8526 18.1034 46.7258 18.0836C46.5991 18.0639 46.4629 18.0476 46.3258 18.0359C46.0043 18.0121 45.6871 17.9943 45.3801 17.983C45.2075 17.9647 45.0304 17.9795 44.8315 17.9724C43.8368 17.9367 43.6912 17.8792 43.3691 17.7554L43.1344 17.666C42.699 17.5936 42.2228 17.5334 41.7401 17.4899C41.2575 17.4464 40.7804 17.4205 40.3432 17.4142C40.1694 17.4138 39.9696 17.4014 39.7744 17.379C39.1393 17.3106 38.4961 17.2633 37.8874 17.2402C37.5081 17.2272 37.0992 17.1935 36.7099 17.1432C36.3206 17.0929 35.9673 17.0281 35.6927 16.9566C35.4459 16.8922 35.1231 16.8344 34.7691 16.7912C34.3547 16.7472 34.3164 16.6955 34.5478 16.6556C34.7791 16.6158 35.1667 16.5645 35.5107 16.5226C35.6304 16.5083 35.7045 16.4852 35.7249 16.4557C35.7453 16.4262 35.7111 16.3915 35.6261 16.3555C35.5715 16.294 35.562 16.2355 35.5979 16.1816C35.6171 16.1593 35.6039 16.1336 35.5591 16.1064C35.5143 16.0791 35.4391 16.051 35.3384 16.0238C35.2378 15.9967 35.114 15.9711 34.9756 15.9489C34.8371 15.9267 34.6871 15.9084 34.5357 15.8951C33.8969 15.8272 33.2754 15.7612 32.6239 15.7116C32.351 15.6882 32.0782 15.6592 31.8125 15.6254C31.2685 15.5416 30.6866 15.4722 30.1004 15.421C29.8222 15.3982 29.5503 15.3582 29.3434 15.3098C28.6908 15.1793 28.0895 15.0421 27.5503 14.9007C27.4203 14.8569 27.2503 14.8141 27.0509 14.7751C26.8514 14.736 26.6268 14.7016 26.3912 14.6739C26.2013 14.6538 26.0467 14.6093 25.9003 14.5797C25.794 14.5113 25.7826 14.448 25.8673 14.3957C25.952 14.3435 26.1301 14.304 26.3847 14.281C26.6261 14.2534 26.8521 14.2214 27.0608 14.1875C27.3124 14.1602 27.6115 14.1437 27.947 14.1388C28.3443 14.1241 28.6381 14.0821 28.7901 14.0183C27.7024 13.9027 26.6681 13.7368 25.7146 13.7755L24.9902 13.6706C25.0191 13.6288 25.0443 13.5923 25.0678 13.5583C25.2401 13.4966 25.2939 13.4187 25.2247 13.3313C25.1676 13.289 25.1727 13.2505 25.2396 13.2197C25.3064 13.1889 25.4325 13.1669 25.6052 13.156C26.6282 13.0433 27.8112 12.9673 28.7705 12.8395C29.0713 12.8155 29.4234 12.8046 29.812 12.8072C30.188 12.7996 30.1723 12.7419 29.7396 12.6707C29.4968 12.6335 29.2492 12.5978 28.998 12.5639C27.8899 12.5582 27.4385 12.7288 26.1741 12.6813L25.588 12.4565C25.4296 12.453 25.2757 12.4517 25.1276 12.4524L23.0074 12.5437C22.8308 12.5483 22.6934 12.5639 22.6106 12.5888C22.5279 12.6137 22.5033 12.6469 22.5395 12.6845C22.5538 12.7306 22.5246 12.7729 22.4529 12.8098C22.4067 12.8357 22.4363 12.8701 22.5352 12.9054C22.7581 12.9851 22.4721 12.9968 22.2915 13.0168C22.2453 13.0188 22.192 13.0186 22.1348 13.0162C22.0776 13.0138 22.0175 13.0094 21.9581 13.003C21.8987 12.9967 21.8411 12.9887 21.7887 12.9794C21.7362 12.9701 21.69 12.9598 21.6527 12.9489C21.3344 12.8731 21.0561 12.7931 20.7432 12.7094C20.9653 12.6294 20.704 12.4979 21.0506 12.4255C21.0893 12.411 21.1048 12.3934 21.0962 12.3737C21.0875 12.354 21.0547 12.3326 21 12.3109C20.8589 12.2548 20.7917 12.2001 20.8052 12.1523C20.8186 12.1046 20.9123 12.0654 21.0768 12.0388L21.0966 12.0101C20.6629 11.9136 20.7778 11.8278 20.6075 11.7256L20.1903 11.6589C19.1523 11.4982 19.1505 11.5008 18.2569 11.5067C18.0767 11.4455 18.3056 11.4362 18.4772 11.4292L19.9145 11.3606C20.8543 11.3148 21.8213 11.283 22.8711 11.2657C23.9209 11.2484 25.0913 11.1906 26.1763 11.149C26.2312 11.1458 26.2732 11.1394 26.2987 11.1304C26.3243 11.1214 26.3327 11.1101 26.3232 11.0974C26.2801 11.0836 26.2236 11.0703 26.158 11.0585C26.0924 11.0467 26.0193 11.0366 25.9441 11.0291C25.5988 10.9924 25.2445 10.9687 24.8766 10.9381L24.1906 10.8848L23.9795 10.8147C23.8422 10.7721 23.7484 10.7201 23.5657 10.6895C23.4151 10.6667 23.2517 10.6493 23.0923 10.6393C22.933 10.6293 22.7837 10.6269 22.6599 10.6325C22.3167 10.6465 22.0062 10.6667 21.6784 10.6851C21.3507 10.7035 21.17 10.7235 20.8858 10.7326C20.3083 10.7367 19.7503 10.7475 19.214 10.7651C18.7623 10.8066 18.3445 10.8558 17.9633 10.9124C17.7254 10.9347 17.503 10.9615 17.0969 10.9324C16.9042 10.906 16.7381 10.8712 16.6278 10.8344C16.5176 10.7976 16.4704 10.761 16.4947 10.7311C16.5165 10.7077 16.5782 10.6892 16.6739 10.6773C16.7697 10.6654 16.8963 10.6606 17.042 10.6632C17.4496 10.6589 17.8266 10.6444 18.1652 10.62C18.6366 10.5759 19.2105 10.5568 19.8533 10.564C20.0713 10.5704 20.2174 10.5467 20.408 10.5389C20.5987 10.5312 20.7603 10.5119 20.9729 10.5261C21.6333 10.5626 21.95 10.5066 22.3458 10.4702C22.4797 10.4541 22.5628 10.428 22.5857 10.3949C22.6086 10.3617 22.5705 10.3228 22.4756 10.2823C22.2929 10.2018 22.0695 10.1207 21.8087 10.0406C21.6745 10.0011 21.5025 9.96371 21.3064 9.9312C21.1102 9.89868 20.8951 9.87198 20.6779 9.85318C20.548 9.80384 20.4786 9.75533 20.4762 9.71202C20.4738 9.66871 20.5383 9.63198 20.664 9.60515C20.9843 9.54392 21.2682 9.48163 21.9859 9.51585C22.3233 9.52892 22.6408 9.53143 22.9258 9.52327C23.5581 9.51209 24.2874 9.53655 25.045 9.59434C25.2411 9.60914 25.4337 9.61924 25.6174 9.62433C26.9272 9.65983 28.1751 9.67755 29.4266 9.69005C30.0897 9.69606 30.7581 9.69423 31.4502 9.71174C33.0734 9.74971 34.5509 9.73019 36.1176 9.74256C36.9381 9.74892 37.6725 9.72335 38.2824 9.66718C38.4011 9.64835 38.5031 9.62637 38.5872 9.6015C38.183 9.53624 37.7392 9.48458 37.298 9.45144C36.8569 9.41831 36.4333 9.40482 36.0678 9.41227C35.8669 9.43054 35.6072 9.43388 35.3176 9.42192C35.0281 9.40996 34.7202 9.38317 34.4282 9.34453L35.2772 9.32267C35.8402 9.31245 36.4169 9.30928 36.9645 9.29462C37.8344 9.26937 38.6407 9.22896 39.5415 9.21261C40.2688 9.19756 40.9196 9.15912 41.4736 9.09849C41.8737 9.05426 42.3308 9.0229 42.8354 9.00504C43.1941 8.99552 43.1941 8.99552 43.4234 8.90502C43.2415 8.84646 43.0062 8.83828 42.7846 8.83715C41.456 8.80031 40.1917 8.79385 39.0173 8.81791C38.4248 8.82004 37.8991 8.84486 37.4656 8.89118C37.3594 8.91072 37.0878 8.90147 36.8698 8.89512C36.1864 8.88547 35.5333 8.88827 34.9182 8.9035C34.0677 8.92888 33.1206 8.92286 32.1135 8.88568C31.9226 8.84017 32.1424 8.84392 32.1532 8.82825C32.9332 8.79906 33.6978 8.76542 34.4932 8.74067C34.7107 8.73185 34.9431 8.72749 35.1879 8.72763C36.1019 8.74298 36.8635 8.70046 37.3661 8.60604C37.3913 8.5695 37.7219 8.57381 37.868 8.55011C37.9399 8.5296 37.9877 8.50544 38.0102 8.47836C37.7973 8.41092 37.5567 8.41057 37.3714 8.41049C36.8338 8.41802 36.3166 8.43229 35.8223 8.45323C35.3628 8.47316 34.8542 8.47848 34.3102 8.46908C33.9087 8.46004 33.5655 8.474 33.1604 8.47019C32.9407 8.46216 32.7132 8.44928 32.4827 8.4318C32.7394 8.38479 33.0883 8.35589 33.5049 8.3471C33.8208 8.31903 34.2159 8.31057 34.2663 8.23748C34.1171 8.18521 33.9509 8.18436 33.8174 8.18979C33.5396 8.18959 33.2712 8.19288 33.0137 8.19965C32.4678 8.21451 31.8766 8.21471 31.2527 8.20026C30.9242 8.19486 30.6125 8.19649 30.3228 8.20512C29.6662 8.21661 29.037 8.24221 28.4358 8.25398C27.2043 8.26603 26.0812 8.30919 24.8979 8.33196C24.6346 8.3376 24.3985 8.35734 24.0514 8.32327C23.7043 8.28919 23.6888 8.28475 23.6479 8.26358C23.5507 8.22828 23.5213 8.19404 23.5657 8.168C23.6345 8.14367 23.7686 8.13011 23.9441 8.12976C25.0019 8.09105 26.0052 8.03669 26.9477 7.96699C27.3625 7.95304 27.7259 7.92456 28.0253 7.88256C28.2627 7.85364 28.5444 7.83449 28.8614 7.82571C29.3225 7.8048 29.8032 7.78948 30.3016 7.77981C30.5335 7.77462 30.7306 7.75912 30.8815 7.73425C31.0323 7.70938 31.1338 7.67563 31.18 7.63499L30.569 7.50004C30.473 7.49375 30.3778 7.48831 30.2838 7.48374L25.2129 7.58095L24.7107 7.58363C24.1603 7.57558 24.0257 7.55568 23.5037 7.39935C24.6952 7.36257 25.6318 7.25537 26.2203 7.08843C26.0789 7.07047 25.9339 7.05507 25.7887 7.04257C24.8365 7.00309 23.9364 6.99259 23.123 7.0115C22.6398 7.01339 22.143 7.00824 21.6444 7.00569C21.7902 6.92873 22.3489 6.95166 22.713 6.93431C23.5829 6.90716 24.3522 6.85108 24.9963 6.76786C25.2183 6.73542 25.4961 6.71467 25.8169 6.70657C26.138 6.70378 26.4062 6.68414 26.5982 6.64936C26.7902 6.61458 26.9001 6.56571 26.9185 6.50701C26.9487 6.45386 27.0139 6.40447 27.113 6.35958C26.9376 6.29589 26.6592 6.23489 26.3298 6.18804C26.0005 6.14118 25.643 6.1117 25.3244 6.10511C24.6442 6.07888 23.9387 6.03595 23.2258 5.9774C22.8707 5.94787 22.5225 5.93092 22.2039 5.92765C21.9228 5.92514 21.6034 5.90381 21.2943 5.86692C20.9851 5.83003 20.7033 5.7796 20.4918 5.72333C20.2063 5.65377 19.9398 5.58343 19.6733 5.5131C19.4069 5.44276 19.0977 5.35388 18.7866 5.2676C18.5124 5.2541 18.2453 5.24543 17.9891 5.24169C17.7897 5.24486 17.5571 5.23545 17.3187 5.21459C17.0803 5.19372 16.8459 5.16227 16.6434 5.12394C16.7622 5.08613 16.8965 5.05276 17.0379 5.00896C16.8438 4.95111 16.703 4.89212 16.6242 4.83558C16.5453 4.77904 16.5301 4.72613 16.5795 4.68008C16.6083 4.63832 16.3972 4.56826 16.3243 4.51288C16.2304 4.46514 16.2128 4.42059 16.2737 4.38507C16.3346 4.34954 16.4713 4.32471 16.6657 4.31382C16.9069 4.29371 17.1032 4.26344 17.2465 4.22423C17.2939 4.21406 17.3181 4.20012 17.3167 4.18369C17.3153 4.16727 17.2886 4.14889 17.2388 4.13022C17.189 4.11155 17.1178 4.0932 17.0317 4.07684C16.9457 4.06048 16.8474 4.04664 16.7461 4.03658C16.4355 4.00806 16.1271 3.98957 15.8385 3.98218C15.3413 3.96858 14.8654 3.96004 14.4107 3.95655C13.9078 3.95131 13.3483 3.91893 12.7891 3.86271C12.2884 3.80951 11.8395 3.76182 11.5947 3.66016C11.3498 3.5585 10.9584 3.56174 10.6574 3.48774C10.8265 3.42103 11.127 3.37468 11.5286 3.35336C11.7915 3.34576 12.0108 3.32579 12.1727 3.29474C12.3346 3.26369 12.4354 3.22225 12.4686 3.17307L11.5548 2.96671C10.8251 2.86956 10.4213 2.94434 9.63279 2.90539L10.4452 2.82921C10.4616 2.82168 10.4677 2.81284 10.4633 2.80311C10.3844 2.64904 10.2589 2.61609 9.42837 2.53065L8.96224 2.48113L8.22446 2.42235C8.10631 2.39078 8.0246 2.35785 7.98746 2.32687C7.95033 2.29588 7.95909 2.26792 8.01288 2.24578C8.12097 2.20855 8.15384 2.16098 8.10845 2.10745C8.0369 2.07198 8.031 2.03929 8.09176 2.01504C8.15252 1.99079 8.27611 1.97651 8.4411 1.97469C8.57277 1.97187 8.58255 1.93088 8.65418 1.90767C8.72535 1.87569 8.84717 1.85114 9.01133 1.83571C9.1755 1.82027 9.37811 1.81431 9.60548 1.81823C10.2758 1.82144 10.9055 1.80943 11.4834 1.78242L11.3799 1.77142C11.9822 1.79512 12.5454 1.798 13.0419 1.7799C13.5395 1.75712 14.178 1.77174 14.7065 1.75785C15.1368 1.76103 15.4643 1.72951 15.6197 1.66996C15.7702 1.6131 16.317 1.62637 16.7357 1.63724C16.9838 1.64427 17.2235 1.64725 17.4523 1.64614C17.7595 1.63328 18.1436 1.64541 18.5405 1.68051C18.6596 1.6913 18.777 1.69701 18.8812 1.6971C19.8903 1.71185 20.8975 1.72922 21.8929 1.73692C22.1227 1.73248 22.3921 1.74264 22.6696 1.7662C22.7862 1.77643 22.8997 1.78067 22.9948 1.77835C24.5677 1.75495 26.3426 1.81465 27.8845 1.78236C28.0714 1.77473 28.2783 1.77315 28.4994 1.77764C28.9961 1.79661 29.4275 1.78441 29.728 1.74288C29.8901 1.72079 30.098 1.70862 30.3383 1.70715C30.5786 1.70567 30.8462 1.71491 31.1238 1.73429C31.5859 1.75996 32.0129 1.76274 32.3599 1.74235C33.0364 1.72351 33.7479 1.71577 34.4886 1.71917C34.7156 1.72247 34.9151 1.71515 35.0717 1.69778C35.2283 1.68041 35.3378 1.65345 35.3917 1.61901C35.2098 1.56045 35.0109 1.55333 34.822 1.55848C34.0899 1.54513 33.3597 1.52918 32.6412 1.52289C31.9982 1.50493 31.3812 1.49944 30.7993 1.5065C30.5104 1.51447 30.1499 1.4963 29.7965 1.45598C29.3633 1.40491 28.9171 1.37954 28.5482 1.38499C28.2747 1.38635 27.986 1.38195 27.6863 1.37186C27.4944 1.35969 27.2978 1.3388 27.1165 1.31133C27.0446 1.2994 26.9663 1.28936 26.8867 1.28187C26.8071 1.27438 26.7279 1.2696 26.6541 1.26783C26.5803 1.26605 26.5136 1.26733 26.4583 1.27157C26.4029 1.27582 26.3602 1.28294 26.3327 1.29249C26.0552 1.37227 25.4347 1.33155 24.9033 1.32273C24.1071 1.1877 23.5145 1.26762 22.7703 1.19135C22.7114 1.18629 22.6534 1.18323 22.5998 1.18236C22.5463 1.18148 22.4983 1.18281 22.4587 1.18626C21.0185 1.23217 19.34 1.19391 17.828 1.20977C17.6612 1.21208 17.4676 1.20414 17.2693 1.18683C15.9731 1.07229 14.7268 1.03978 13.7741 1.09564C13.6582 1.10067 13.5263 1.10089 13.3845 1.09627C12.7331 1.05075 12.1103 1.0326 11.5678 1.04334C10.7177 1.03987 9.9004 1.04268 9.03665 1.03216C8.44124 1.01719 7.91891 1.03319 7.52199 1.07856C7.50937 1.09683 7.24497 1.07714 7.04243 1.07523C6.92595 1.02924 6.82496 0.987688 6.70487 0.946913C6.59752 0.896467 6.43671 0.845416 6.23339 0.797228C6.03007 0.74904 5.78902 0.70484 5.52646 0.667615C5.07757 0.619922 5.03268 0.550713 5.34678 0.525251C6.15639 0.44101 7.17443 0.406531 8.32607 0.424344C9.28876 0.425768 10.2687 0.42903 11.2451 0.437508C11.8146 0.444781 12.4149 0.460937 12.9689 0.463767C13.1559 0.469982 13.3479 0.479142 13.5431 0.491147C13.7825 0.508554 14.015 0.518039 14.228 0.519092C14.9119 0.504432 15.6752 0.517203 16.4814 0.556794C16.7767 0.565428 17.0603 0.568337 17.3279 0.565481C17.961 0.554733 18.6473 0.562642 19.3687 0.588998C19.8171 0.603858 20.2518 0.61163 20.6685 0.612227C20.8156 0.613851 20.9354 0.601367 21.0772 0.610821C22.3246 0.70974 23.2079 0.638291 24.3307 0.676329C24.8763 0.686935 25.3976 0.686965 25.8873 0.676419C26.8429 0.676929 27.8251 0.687775 28.83 0.70891C30.1589 0.743635 31.3903 0.731586 32.6591 0.745924C32.9096 0.748936 33.1515 0.748423 33.383 0.744384C34.509 0.7177 35.732 0.723359 37.0222 0.761222C37.3152 0.766693 37.5783 0.760002 37.7951 0.741579C38.0119 0.723155 38.1777 0.693392 38.2822 0.65415C38.3264 0.627218 38.2978 0.592237 38.2018 0.555954C38.0426 0.509619 37.8627 0.46422 37.6653 0.420505L30.4834 0.273815C30.1818 0.266155 29.8876 0.262031 29.6024 0.261461C28.7637 0.260186 27.8991 0.248774 27.013 0.227283C26.1374 0.207095 25.3009 0.21068 24.4527 0.204602C24.2028 0.202566 23.9463 0.197761 23.6843 0.190204C21.9131 0.130387 20.186 0.0938518 18.5152 0.0808596C17.8122 0.0790161 17.0528 0.0515636 16.3362 0.0426655C15.6196 0.0337682 14.6396 0.0305099 13.7896 0.0270416L11.1576 0.0275747C10.64 0.0258038 10.1359 0.0310861 9.63371 0.0337601C9.02425 -0.157068 8.81424 -0.201798 8.00098 -0.285402C7.72276 -0.316242 7.43976 -0.334646 7.18517 -0.33846C6.37786 -0.323374 5.3649 -0.386171 4.59933 -0.377858C4.13738 -0.381959 3.74539 -0.36076 3.4635 -0.31643C3.2188 -0.281639 2.93897 -0.254111 2.62835 -0.234259C1.77746 -0.397509 1.70247 -0.503536 2.34254 -0.544795C2.51596 -0.554387 2.75482 -0.55142 2.88005 -0.571735C2.9519 -0.584107 3.05006 -0.591182 3.16671 -0.592406C3.28335 -0.593628 3.41524 -0.588967 3.55205 -0.578783C3.98384 -0.552067 4.38854 -0.545785 4.72556 -0.560566C5.04273 -0.580127 5.43151 -0.579347 5.85443 -0.558295C6.1652 -0.525276 6.43835 -0.5719 6.70711 -0.58537C6.97586 -0.59884 7.19642 -0.623037 7.61619 -0.586842C7.69305 -0.579636 7.76937 -0.575309 7.83927 -0.574195C7.90918 -0.573081 7.97082 -0.57521 8.01946 -0.580417C8.4703 -0.603728 9.0083 -0.601279 9.58977 -0.57327C10.4816 -0.545708 11.3183 -0.544674 12.071 -0.570204C12.5215 -0.592543 12.9056 -0.632157 13.2084 -0.687501C13.2909 -0.706012 13.4134 -0.717112 13.5642 -0.719737C14.3215 -0.708189 15.1437 -0.664728 15.9779 -0.59216C16.2922 -0.563083 16.606 -0.540083 16.9128 -0.52365C17.5433 -0.487145 18.153 -0.46669 18.724 -0.462888C19.5538 -0.462285 20.4177 -0.44824 21.3081 -0.420879C21.8576 -0.405644 22.387 -0.400022 22.8902 -0.404072C23.4074 -0.405981 23.9596 -0.39436 24.5343 -0.369479C25.1057 -0.349204 25.6094 -0.360886 25.9844 -0.403111C26.1079 -0.425865 26.2074 -0.452885 26.281 -0.483667C25.4443 -0.58383 24.5788 -0.634735 23.859 -0.62613C23.5856 -0.632765 23.3586 -0.626066 23.0705 -0.665081L23.0615 -0.652031C23.0042 -0.643563 22.9177 -0.641565 22.8185 -0.646418C22.7193 -0.651272 22.6144 -0.662636 22.5237 -0.678348C22.558 -0.72794 22.5905 -0.774922 22.6139 -0.808853C23.1623 -0.802867 23.6948 -0.803352 24.2087 -0.810311C24.6419 -0.820322 25.2299 -0.73263 25.6048 -0.765639C26.3361 -0.724362 26.8017 -0.781355 27.4575 -0.76491C28.1133 -0.748464 28.8356 -0.694135 29.4914 -0.677689C30.0637 -0.668665 30.6193 -0.666703 31.1553 -0.671813C31.3402 -0.678987 31.5535 -0.677304 31.7819 -0.666868C32.1031 -0.647233 32.4017 -0.643942 32.6437 -0.657377C32.8857 -0.670811 33.0612 -0.700427 33.1502 -0.742828C33.0664 -0.782544 32.9536 -0.833757 32.8234 -0.886808C33.0629 -0.930398 33.4264 -0.948754 33.8603 -0.939141L34.4734 -0.941246C34.6358 -0.940096 34.76 -0.95188 34.8202 -0.974162C34.8804 -0.996443 34.8721 -1.02751 34.797 -1.06095C33.6345 -1.22929 33.5917 -1.24784 32.7386 -1.13957L31.6058 -1.18988L31.6249 -1.19066ZM46.9466 -0.72825L46.8603 -0.73742L46.9466 -0.72825ZM188.113 17.1814L188.093 17.2101L188.115 17.1788L188.305 17.1989L188.318 17.1807L188.113 17.1814ZM160.54 4.59713C160.271 4.5658 160 4.53701 159.728 4.51091C159.657 4.50686 159.59 4.50595 159.534 4.50825C159.477 4.51054 159.433 4.51598 159.404 4.5241C159.382 4.55542 159.534 4.57715 159.672 4.59182C159.846 4.61157 160.024 4.62413 160.188 4.62818C160.351 4.63224 160.494 4.62766 160.601 4.6149L160.758 4.60348L160.54 4.59713ZM22.2784 12.2309C22.4551 12.2362 22.6227 12.2371 22.777 12.2335C23.4617 12.2082 24.1172 12.1714 24.8191 12.1479C25.7047 12.0883 26.7224 12.064 27.8339 12.076C28.2682 12.0818 28.6351 12.0625 28.8917 12.0202C29.0454 11.9976 29.2437 11.9843 29.4746 11.9813L32.4131 11.9125C32.5948 11.8982 32.7518 11.8782 32.8806 11.8529C32.6216 11.8254 32.4489 11.807 32.3453 11.796C32.1304 11.7929 31.9457 11.8013 31.8096 11.8204C31.6635 11.8526 31.4165 11.8654 31.1178 11.8561C30.8161 11.8485 30.522 11.8443 30.2368 11.8438C29.6982 11.8454 29.156 11.8522 28.6157 11.8564C28.4054 11.9462 27.7849 11.9055 27.2536 11.8966L26.8431 11.9006C25.5013 11.9472 24.2196 12.0112 23.0042 12.0923C22.7693 12.1061 22.5669 12.128 22.4033 12.1574C22.3417 12.1803 22.322 12.2089 22.3456 12.2409L22.2593 12.2317L22.2784 12.2309ZM82.1962 20.8104C82.5218 20.8165 82.8607 20.8291 83.2081 20.8479C83.4758 20.8671 83.737 20.8788 83.9812 20.8824C85.3497 20.9025 86.7759 20.949 88.2404 21.0211C88.4319 21.0321 88.6159 21.0374 88.7854 21.037L89.9841 21.0187C90.3619 21.0084 90.3691 20.998 90.0941 20.8595C89.8659 20.8326 89.6351 20.8081 89.4035 20.7861C89.2654 20.7714 89.041 20.7476 88.9884 20.77C88.6682 20.8313 88.084 20.7916 87.5926 20.7786C86.1702 20.7452 84.7032 20.6958 83.2671 20.6552C82.9635 20.6453 82.6694 20.6403 82.3879 20.6403C82.2132 20.6382 82.0539 20.6421 81.9166 20.6518C81.8765 20.6528 81.8429 20.6557 81.8181 20.6603C81.7933 20.665 81.7778 20.6712 81.7727 20.6786C81.7675 20.686 81.7729 20.6944 81.7884 20.7033C81.8039 20.7122 81.8292 20.7213 81.8625 20.7301C81.9801 20.761 82.1158 20.7905 82.2653 20.8178L82.1962 20.8104ZM92.6161 0.711589L94.0173 0.695171C94.1854 0.69341 94.3279 0.67493 94.5077 0.682834C95.4672 0.70788 96.3555 0.700904 97.135 0.6622C97.4005 0.646406 97.711 0.643247 98.0495 0.652899C99.0861 0.681501 100.064 0.682678 100.957 0.656396C101.534 0.651122 102.074 0.633405 102.568 0.603511C102.607 0.596572 102.63 0.58715 102.638 0.575889C102.646 0.564628 102.638 0.551793 102.614 0.538259C102.607 0.529708 102.59 0.520509 102.564 0.511297C102.537 0.502086 102.502 0.493077 102.46 0.484897C102.418 0.476716 102.371 0.469558 102.321 0.463911C102.271 0.458265 102.221 0.454261 102.173 0.452185C101.547 0.41172 100.954 0.397623 100.44 0.411038C99.9646 0.42709 99.452 0.431786 98.9112 0.425055C98.3935 0.423285 98.0423 0.475624 97.4027 0.435687C97.1321 0.422537 96.8935 0.426866 96.727 0.44795C96.392 0.482899 95.9245 0.484843 95.4075 0.453436C95.0982 0.437542 94.8026 0.430725 94.5319 0.433248C93.8753 0.444738 93.2479 0.467726 92.6395 0.489939C92.4478 0.495078 92.2424 0.495786 92.0265 0.49205L88.9802 0.448554C88.2481 0.435211 87.5178 0.419258 86.7994 0.412971C86.2119 0.399317 85.6651 0.403594 85.1784 0.425649C84.6594 0.448829 84.0934 0.458239 83.4911 0.453703C82.5557 0.466388 81.6257 0.47124 80.6076 0.469534C79.9583 0.470583 79.2935 0.467191 78.615 0.456741C78.2717 0.443293 77.9804 0.454245 77.7969 0.487489C77.6853 0.514858 77.4227 0.492561 77.2047 0.48621C76.0419 0.424989 74.9515 0.410484 74.0095 0.443702C73.8892 0.449115 73.7571 0.451074 73.6162 0.449547C72.709 0.448406 71.7689 0.440986 70.898 0.440904C70.6687 0.443485 70.4529 0.450568 70.2533 0.46206C70.2746 0.480811 70.3356 0.501135 70.4234 0.518815C70.5113 0.536495 70.6193 0.550177 70.7251 0.55702C71.5488 0.609406 72.3442 0.637079 73.0777 0.638879C74.2988 0.632206 75.5778 0.64721 76.9015 0.683728C77.9286 0.720545 78.8651 0.712795 79.6414 0.66105C80.2482 0.622441 81.0375 0.636968 81.8739 0.702136C82.2318 0.73326 82.5792 0.745706 82.8686 0.737772C83.1471 0.727364 83.4667 0.729888 83.8086 0.745194C84.5295 0.774299 85.2228 0.7878 85.875 0.785433C86.5125 0.774718 87.1072 0.74545 87.7619 0.73657C88.4167 0.72769 89.4139 0.732778 90.2212 0.717693C91.0285 0.702607 91.8268 0.700575 92.6161 0.711589ZM34.553 -0.815113C34.627 -0.73441 34.8888 -0.684178 35.1705 -0.662658C36.1415 -0.567104 37.1015 -0.526443 37.8892 -0.547498C38.3148 -0.576866 38.8821 -0.565562 39.4796 -0.515804C40.1755 -0.464081 40.8258 -0.455502 41.3161 -0.491582C41.4362 -0.497886 41.5282 -0.511213 41.5838 -0.530378C41.5947 -0.546038 41.6145 -0.574748 41.6181 -0.579968C41.5666 -0.593207 41.5034 -0.605473 41.4334 -0.615822C41.3635 -0.62617 41.2886 -0.634323 41.2146 -0.639653L37.9982 -0.732036L37.4377 -0.752365C36.414 -0.805625 35.4384 -0.826842 34.553 -0.815113ZM40.8796 0.462239C41.3816 0.594021 41.3833 0.591405 41.6405 0.621531C42.8812 0.746663 44.121 0.814211 45.2125 0.816138C45.4551 0.815756 45.661 0.803036 45.8127 0.779045C45.8908 0.775793 45.9404 0.765463 45.9509 0.750306C45.9614 0.735148 45.9318 0.716393 45.8686 0.698132L45.4694 0.605291C44.7445 0.565099 44.03 0.533162 43.3301 0.509675C42.5153 0.481941 41.7933 0.48087 40.9486 0.469572L40.8796 0.462239ZM82.1361 20.2269C82.6038 20.4083 82.6056 20.4057 83.3887 20.4524C83.9344 20.4856 84.4637 20.505 84.9611 20.5102C85.5687 20.516 86.1918 20.5261 86.7976 20.5344C86.9455 20.5402 87.0709 20.5354 87.1494 20.521C87.2278 20.5065 87.2538 20.4835 87.2222 20.4563C87.1427 20.4268 87.0184 20.3982 86.8694 20.3753C86.7204 20.3523 86.5554 20.3363 86.4014 20.3299L86.0709 20.3256C85.6694 20.3165 85.2525 20.303 84.8646 20.3011C84.613 20.3086 84.3215 20.3028 84.0129 20.2841C83.7043 20.2654 83.387 20.2343 83.0859 20.1933L82.1361 20.2269ZM43.3773 -0.577967C43.5022 -0.546557 43.6434 -0.516473 43.7973 -0.488516C44.3931 -0.411027 45.0236 -0.367016 45.5653 -0.365112C45.8214 -0.360311 46.0556 -0.37745 46.3164 -0.352544C46.7841 -0.319264 47.2374 -0.301536 47.6518 -0.30032C47.6518 -0.30032 47.768 -0.307587 47.8061 -0.309139L47.8854 -0.423982C47.6893 -0.450588 47.4847 -0.472323 47.2811 -0.488186C46.598 -0.518741 45.9268 -0.53963 45.2573 -0.56313C44.5879 -0.58663 44.3544 -0.597425 43.9166 -0.607518C43.7213 -0.601971 43.5407 -0.592072 43.3773 -0.577967ZM28.5841 13.6994L29.4781 13.9345C29.7674 13.9549 30.0376 13.9586 30.2477 13.945C30.4578 13.9314 30.5962 13.9013 30.642 13.8592C30.7156 13.8395 30.723 13.8103 30.6625 13.7778C30.6021 13.7453 30.4785 13.7119 30.3178 13.6847C30.1631 13.6524 29.9865 13.6235 29.7989 13.5997C29.6113 13.5759 29.4167 13.5578 29.2273 13.5464L28.5841 13.6994ZM36.0272 12.529C35.4425 12.4892 34.8833 12.4729 34.3922 12.4814C34.0829 12.5047 33.6637 12.4973 33.2206 12.4606C32.4148 12.3874 31.6381 12.3672 31.0542 12.4041C31.0542 12.4041 31.0326 12.4354 30.9336 12.4445C30.8347 12.4536 31.2271 12.4757 31.3135 12.4849C31.9466 12.5073 32.5833 12.5245 33.1337 12.5326C33.4754 12.5322 33.8369 12.5396 34.2118 12.5547C34.7278 12.5779 35.217 12.5854 35.6605 12.5769C35.6605 12.5769 35.8321 12.5699 36.0254 12.5316L36.0272 12.529ZM98.47 0.285724C98.1907 0.241455 97.8879 0.205474 97.5842 0.180486C97.2805 0.155498 96.9838 0.142149 96.7164 0.141439C96.5117 0.139129 96.346 0.150818 96.2456 0.174656C96.1452 0.198494 96.1159 0.233123 96.1622 0.273066C96.3694 0.295078 96.6456 0.324427 96.801 0.340936C97.3395 0.339321 97.799 0.318094 98.47 0.285724ZM150.748 4.01628C150.524 3.98064 150.277 3.9534 150.036 3.93765C149.794 3.92191 149.568 3.9183 149.383 3.92724C149.287 3.93112 149.352 3.97161 149.336 3.9951C149.325 4.00043 149.325 4.00705 149.336 4.01428C149.347 4.02151 149.368 4.02908 149.397 4.03619C149.427 4.0433 149.463 4.0497 149.502 4.0547C149.542 4.05971 149.583 4.06315 149.621 4.06466C149.864 4.08001 150.094 4.08458 150.289 4.07796C150.485 4.07134 150.64 4.05374 150.741 4.02672L150.748 4.01628ZM154.251 4.52572C154.216 4.50469 154.142 4.48278 154.043 4.46399C153.944 4.4452 153.825 4.4308 153.71 4.42343C153.506 4.42244 153.32 4.42827 153.161 4.4407C152.987 4.45029 153.112 4.51118 153.346 4.5473C153.446 4.5618 153.552 4.57311 153.656 4.58033C153.761 4.58755 153.861 4.59048 153.948 4.58889C154.036 4.5873 154.108 4.58124 154.16 4.57118C154.212 4.56112 154.242 4.54734 154.247 4.53094L154.251 4.52572ZM52.4704 -0.354296C51.9478 -0.429431 51.5455 -0.41053 51.1031 -0.440728C50.6607 -0.470927 50.5516 -0.474104 50.6109 -0.425781C50.6702 -0.377457 50.9735 -0.387257 51.1634 -0.36708C51.42 -0.340304 51.6781 -0.32493 51.909 -0.322672C52.1398 -0.320415 52.3342 -0.331364 52.4704 -0.354296ZM161.367 12.3589C161.09 12.342 160.819 12.3301 160.558 12.3233C160.523 12.3303 160.502 12.3394 160.494 12.3502C160.487 12.3609 160.494 12.3731 160.514 12.3859C160.514 12.3859 160.692 12.4244 160.795 12.4354C161.177 12.4731 161.196 12.4191 161.367 12.3589ZM200.489 19.3592C200.677 19.4099 200.764 19.4444 200.914 19.4688C200.983 19.4772 201.054 19.4834 201.122 19.4867C201.191 19.4901 201.254 19.4906 201.308 19.4883C201.374 19.4736 201.39 19.4513 201.352 19.4256C201.352 19.4256 201.161 19.3801 201.088 19.378C200.881 19.3672 200.68 19.3609 200.489 19.3592ZM43.5752 -0.783882C43.1781 -0.826073 42.7982 -0.866433 42.5233 -0.817197C43.1538 -0.76421 43.1539 -0.764206 43.5752 -0.783882ZM50.0067 -0.302267C49.6057 -0.392498 49.3704 -0.400685 49.1779 -0.390319C49.137 -0.387707 49.11 -0.381887 49.1008 -0.373743C49.0917 -0.365597 49.101 -0.355569 49.1273 -0.345175C49.1536 -0.33478 49.1955 -0.324586 49.2467 -0.316133C49.2979 -0.30768 49.3555 -0.301429 49.4109 -0.298325C49.62 -0.295728 49.8195 -0.297046 50.0067 -0.302267ZM70.6438 -0.264111C70.6528 -0.277162 70.6636 -0.292823 70.56 -0.303829C70.5329 -0.309416 70.5011 -0.314221 70.4677 -0.317762C70.4344 -0.321304 70.4007 -0.323457 70.3701 -0.324004C70.3701 -0.324004 70.3593 -0.308343 70.3521 -0.297902L70.6438 -0.264111ZM84.9747 21.4026L84.744 21.4145L84.8476 21.4255L85.121 21.4322L84.9747 21.4026ZM166.178 4.32208C166.092 4.31291 166.005 4.30374 165.993 4.32201C165.975 4.32484 165.963 4.32892 165.96 4.33392C165.956 4.33891 165.961 4.34467 165.973 4.35072C165.973 4.35072 166.094 4.36356 166.146 4.36906L166.178 4.32208ZM152.734 4.46821C152.677 4.46716 152.626 4.46838 152.583 4.47181L152.572 4.48747L152.745 4.50581L152.734 4.46821ZM35.5712 8.19962C35.5045 8.1901 35.4339 8.18259 35.3641 8.17761L35.2777 8.16843C35.2777 8.16843 35.3705 8.1951 35.4223 8.2006C35.4741 8.2061 35.5158 8.19933 35.5712 8.19962Z" fill="#DF6951"/>
</g>
</svg>
