<svg width="28" height="28" viewBox="0 0 28 28" fill="none" xmlns="http://www.w3.org/2000/svg">
<path d="M8.64792 14C7.07292 14.0521 5.78472 14.7188 4.78333 16H2.82917C2.03194 16 1.36111 15.7891 0.816667 15.3672C0.272222 14.9453 0 14.3281 0 13.5156C0 9.83854 0.602778 8 1.80833 8C1.86667 8 2.07812 8.10938 2.44271 8.32812C2.80729 8.54688 3.28125 8.76823 3.86458 8.99219C4.44792 9.21615 5.02639 9.32812 5.6 9.32812C6.25139 9.32812 6.89792 9.20833 7.53958 8.96875C7.49097 9.35417 7.46667 9.69792 7.46667 10C7.46667 11.4479 7.86042 12.7812 8.64792 14ZM24.2667 23.9531C24.2667 25.2031 23.9118 26.1901 23.2021 26.9141C22.4924 27.638 21.5493 28 20.3729 28H7.62708C6.45069 28 5.50764 27.638 4.79792 26.9141C4.08819 26.1901 3.73333 25.2031 3.73333 23.9531C3.73333 23.401 3.75035 22.862 3.78437 22.3359C3.8184 21.8099 3.88646 21.2422 3.98854 20.6328C4.09062 20.0234 4.21944 19.4583 4.375 18.9375C4.53056 18.4167 4.73958 17.9089 5.00208 17.4141C5.26458 16.9193 5.56597 16.4974 5.90625 16.1484C6.24653 15.7995 6.66215 15.5208 7.15312 15.3125C7.6441 15.1042 8.18611 15 8.77917 15C8.87639 15 9.08542 15.112 9.40625 15.3359C9.72708 15.5599 10.0819 15.8099 10.4708 16.0859C10.8597 16.362 11.3799 16.612 12.0312 16.8359C12.6826 17.0599 13.3389 17.1719 14 17.1719C14.6611 17.1719 15.3174 17.0599 15.9688 16.8359C16.6201 16.612 17.1403 16.362 17.5292 16.0859C17.9181 15.8099 18.2729 15.5599 18.5938 15.3359C18.9146 15.112 19.1236 15 19.2208 15C19.8139 15 20.3559 15.1042 20.8469 15.3125C21.3378 15.5208 21.7535 15.7995 22.0938 16.1484C22.434 16.4974 22.7354 16.9193 22.9979 17.4141C23.2604 17.9089 23.4694 18.4167 23.625 18.9375C23.7806 19.4583 23.9094 20.0234 24.0115 20.6328C24.1135 21.2422 24.1816 21.8099 24.2156 22.3359C24.2497 22.862 24.2667 23.401 24.2667 23.9531ZM9.33333 4C9.33333 5.10417 8.96875 6.04688 8.23958 6.82812C7.51042 7.60938 6.63056 8 5.6 8C4.56944 8 3.68958 7.60938 2.96042 6.82812C2.23125 6.04688 1.86667 5.10417 1.86667 4C1.86667 2.89583 2.23125 1.95312 2.96042 1.17188C3.68958 0.390625 4.56944 0 5.6 0C6.63056 0 7.51042 0.390625 8.23958 1.17188C8.96875 1.95312 9.33333 2.89583 9.33333 4ZM19.6 10C19.6 11.6562 19.0531 13.0703 17.9594 14.2422C16.8656 15.4141 15.5458 16 14 16C12.4542 16 11.1344 15.4141 10.0406 14.2422C8.94687 13.0703 8.4 11.6562 8.4 10C8.4 8.34375 8.94687 6.92969 10.0406 5.75781C11.1344 4.58594 12.4542 4 14 4C15.5458 4 16.8656 4.58594 17.9594 5.75781C19.0531 6.92969 19.6 8.34375 19.6 10ZM28 13.5156C28 14.3281 27.7278 14.9453 27.1833 15.3672C26.6389 15.7891 25.9681 16 25.1708 16H23.2167C22.2153 14.7188 20.9271 14.0521 19.3521 14C20.1396 12.7812 20.5333 11.4479 20.5333 10C20.5333 9.69792 20.509 9.35417 20.4604 8.96875C21.1021 9.20833 21.7486 9.32812 22.4 9.32812C22.9736 9.32812 23.5521 9.21615 24.1354 8.99219C24.7187 8.76823 25.1927 8.54688 25.5573 8.32812C25.9219 8.10938 26.1333 8 26.1917 8C27.3972 8 28 9.83854 28 13.5156ZM26.1333 4C26.1333 5.10417 25.7687 6.04688 25.0396 6.82812C24.3104 7.60938 23.4306 8 22.4 8C21.3694 8 20.4896 7.60938 19.7604 6.82812C19.0312 6.04688 18.6667 5.10417 18.6667 4C18.6667 2.89583 19.0312 1.95312 19.7604 1.17188C20.4896 0.390625 21.3694 0 22.4 0C23.4306 0 24.3104 0.390625 25.0396 1.17188C25.7687 1.95312 26.1333 2.89583 26.1333 4Z" fill="#0C99FF"/>
</svg>
