<svg width="16" height="16" viewBox="0 0 16 16" fill="none" xmlns="http://www.w3.org/2000/svg">
<g clip-path="url(#clip0_51_91)">
<path d="M16 0.693333V11.04C16 11.2178 15.9378 11.3778 15.8133 11.52C15.6889 11.6622 15.5289 11.7333 15.3333 11.7333C15.1378 11.7333 14.9689 11.6622 14.8267 11.52C14.6844 11.3778 14.6133 11.2178 14.6133 11.04V2.34667L1.17333 15.7867C1.03111 15.9289 0.862222 16 0.666667 16C0.471111 16 0.311111 15.9378 0.186667 15.8133C0.0622222 15.6889 0 15.5289 0 15.3333C0 15.1378 0.0711111 14.9689 0.213333 14.8267L13.6533 1.38667H4.96C4.78222 1.38667 4.62222 1.31556 4.48 1.17333C4.33778 1.03111 4.26667 0.862222 4.26667 0.666666C4.26667 0.47111 4.33778 0.31111 4.48 0.186666C4.62222 0.0622215 4.78222 0 4.96 0H15.3067C15.52 0 15.6889 0.0622215 15.8133 0.186666C15.9378 0.31111 16 0.48 16 0.693333Z" fill="white"/>
</g>
<defs>
<clipPath id="clip0_51_91">
<rect width="16" height="16" fill="white" transform="matrix(1 0 0 -1 0 16)"/>
</clipPath>
</defs>
</svg>
