<svg width="321" height="104" viewBox="0 0 321 104" fill="none" xmlns="http://www.w3.org/2000/svg">
<path fill-rule="evenodd" clip-rule="evenodd" d="M264.975 40.4886L265.236 80.9771L273.946 81.2633L282.657 81.5504L282.937 69.69L283.218 57.8306L291.71 69.6254L300.201 81.4203L310.5 81.4471C318.48 81.468 320.629 81.1947 320.046 80.2319C319.631 79.5493 314.884 73.1387 309.497 65.9869C304.109 58.8361 299.702 52.6739 299.702 52.2943C299.702 51.9148 304.01 45.7466 309.274 38.5868C314.54 31.4271 319.084 24.9578 319.371 24.2107C319.794 23.1177 317.937 22.8524 309.857 22.8524H299.818L291.518 34.9364L283.218 47.0214L282.95 23.5102L282.683 0H273.699H264.715L264.975 40.4886ZM15.078 22.149C2.9191 26.0091 -2.01599 42.6407 6.48755 51.0971C9.38966 53.9844 18.9471 58.2091 24.3628 59C25.084 59.1054 26.8952 59.9867 28.3888 60.9594C32.168 63.4225 30.2389 65.5766 24.2549 65.5766C20.5526 65.5766 19.2898 65.052 16.9212 62.5302L14.061 59.4839L7.03001 63.5675C2.88513 65.976 0 68.3149 0 69.2687C0 71.6643 7.99904 78.8509 12.04 80.0839C16.9361 81.5782 29.9762 81.8167 34.8893 80.5012C39.8553 79.1708 45.7655 74.2178 47.6016 69.847C49.5287 65.2596 49.269 59.163 46.9553 54.6501C44.5557 49.9723 39.3409 46.7889 29.173 43.7922C21.7144 41.5954 19.8093 39.8586 21.9891 37.2465C23.7753 35.1053 25.8213 35.4173 29.8043 38.4388L33.3248 41.1096L40.6386 37.2644C44.6606 35.15 47.9523 33.147 47.9523 32.8141C47.9523 31.0744 38.8753 23.7238 35.0891 22.3964C30.135 20.6606 20.1539 20.5374 15.078 22.149ZM82.2911 22.771C80.0244 23.7944 77.7956 25.2341 77.3391 25.9683C76.7287 26.95 76.354 26.6479 75.9245 24.8297C75.364 22.457 74.9854 22.3437 66.6407 22.0685L57.9423 21.7814V62.5571V103.333H66.9334H75.9245V89.9532V76.5726L79.3171 78.5637C83.5129 81.0258 85.8746 81.5405 93.0634 81.5623C103.694 81.5931 111.962 76.1672 117.098 65.7902C120.001 59.927 120.375 58.238 120.338 51.1905C120.288 41.7961 117.891 35.473 112.089 29.4399C104.326 21.367 91.6708 18.5343 82.2911 22.771ZM149.351 21.7943C141.492 23.697 132.962 30.5945 129.765 37.63C127.56 42.4847 125.65 58.3661 127.159 59.2941C127.627 59.5813 127.768 60.4417 127.473 61.2058C127.177 61.9709 127.42 62.5958 128.011 62.5958C128.602 62.5958 128.827 63.2665 128.51 64.0862C128.194 64.9059 128.397 65.5766 128.962 65.5766C129.527 65.5766 129.711 66.0237 129.371 66.5702C129.032 67.1166 129.23 67.5637 129.812 67.5637C130.393 67.5637 130.87 67.9582 130.87 68.4401C130.87 70.0139 138.518 76.968 142.136 78.6839C150.284 82.549 162.715 83.1024 170.498 79.9458C172.24 79.2403 173.926 78.9224 174.245 79.2403C174.564 79.5583 174.826 79.296 174.826 78.6591C174.826 78.0212 175.321 77.4996 175.925 77.4996C176.529 77.4996 178.565 75.9665 180.448 74.0936L183.873 70.6876L177.133 66.6735C170.499 62.722 170.361 62.6882 168.363 64.5254C164.686 67.9095 152.566 69.7288 150.705 67.1762C149.711 65.814 142.143 65.356 139.945 66.5254C138.643 67.218 137.776 67.2339 137.365 66.5731C137.025 66.0247 137.248 65.5766 137.863 65.5766C138.477 65.5766 138.702 65.1295 138.362 64.583C138.023 64.0365 138.247 63.5894 138.862 63.5894C139.476 63.5894 139.701 63.1423 139.361 62.5958C139.022 62.0493 139.168 61.6022 139.685 61.6022C140.859 61.6022 142.042 57.3954 141.072 56.6701C139.989 55.8593 140.139 45.7049 141.233 45.7049C141.761 45.7049 141.914 45.4277 141.573 45.0899C141.233 44.751 141.573 43.8598 142.329 43.1077C143.085 42.3565 144.544 40.733 145.571 39.4999C150.648 33.4103 162.756 31.7937 166.834 36.6633C167.109 36.9911 168.233 37.7552 169.332 38.3613C170.43 38.9674 171.179 39.8119 170.995 40.2372C170.81 40.6634 171.26 41.3808 171.994 41.8319C175.224 43.8171 173.238 45.215 166.492 45.7049L159.648 46.2017L157.247 52.0837C155.927 55.3188 154.846 58.1128 154.846 58.2936C154.846 58.4734 161.952 58.6215 170.636 58.6215H186.427L186.371 51.6664C186.34 47.8411 186.02 44.7113 185.659 44.7113C185.299 44.7113 185.257 43.7475 185.566 42.5691C185.986 40.9724 185.795 40.6316 184.819 41.2318C183.983 41.7454 183.75 41.6491 184.175 40.9645C185.088 39.495 182.77 34.688 181.518 35.4571C180.965 35.7979 180.809 35.5981 181.172 35.0129C181.535 34.4287 180.759 32.683 179.448 31.134C176.942 28.1731 168.843 23.1406 168.817 24.5276C168.808 24.9728 168.43 24.7542 167.977 24.0437C167.523 23.3323 165.956 22.6239 164.494 22.4689C163.032 22.3139 161.537 21.8897 161.172 21.526C160.326 20.6854 153.27 20.8454 149.351 21.7943ZM211.926 23.1297C206.812 24.7561 198.426 32.9473 195.7 38.9783C193.793 43.1971 193.342 45.8549 193.374 52.66C193.424 63.028 196.013 69.6443 202.268 75.3783C206.601 79.3506 210.79 82.0601 210.79 80.8907C210.79 80.531 211.353 80.6771 212.039 81.2156C212.726 81.7541 216.494 82.2847 220.412 82.394C227.945 82.6046 233.166 81.1152 235.748 78.0182C237.148 76.3391 237.26 76.3709 237.788 78.6094C238.318 80.8509 238.811 80.992 247.047 81.2643L255.746 81.5514V52.1632V22.7749L247.047 23.0621C238.703 23.3373 238.324 23.4506 237.763 25.8233C237.334 27.6415 236.959 27.9436 236.349 26.9619C233.691 22.6855 220.054 20.5463 211.926 23.1297ZM97.9465 41.2765C102 45.1375 103.408 50.0637 101.975 55.3595C99.6678 63.8795 90.3251 67.4157 81.7597 63.0111C74.0244 59.0328 73.9714 44.3566 81.6747 39.4413C85.9675 36.701 94.1094 37.6201 97.9465 41.2765ZM229.501 39.7076C236.877 43.0371 239.712 51.0663 236.344 59.0845C233.445 65.9849 222.044 68.1778 215.88 63.0191C207.838 56.2885 210.136 42.6357 219.903 39.1214C224.417 37.4979 224.636 37.5108 229.501 39.7076Z" fill="white"/>
</svg>
