<svg width="45" height="40" viewBox="0 0 45 40" fill="none" xmlns="http://www.w3.org/2000/svg">
<path d="M6.75 17.1429C9.23203 17.1429 11.25 14.5804 11.25 11.4286C11.25 8.27679 9.23203 5.71429 6.75 5.71429C4.26797 5.71429 2.25 8.27679 2.25 11.4286C2.25 14.5804 4.26797 17.1429 6.75 17.1429ZM38.25 17.1429C40.732 17.1429 42.75 14.5804 42.75 11.4286C42.75 8.27679 40.732 5.71429 38.25 5.71429C35.768 5.71429 33.75 8.27679 33.75 11.4286C33.75 14.5804 35.768 17.1429 38.25 17.1429ZM40.5 20H36C34.7625 20 33.6445 20.6339 32.8289 21.6607C35.6625 23.6339 37.6734 27.1964 38.1094 31.4286H42.75C43.9945 31.4286 45 30.1518 45 28.5714V25.7143C45 22.5625 42.982 20 40.5 20ZM22.5 20C26.8523 20 30.375 15.5268 30.375 10C30.375 4.47321 26.8523 0 22.5 0C18.1477 0 14.625 4.47321 14.625 10C14.625 15.5268 18.1477 20 22.5 20ZM27.9 22.8571H27.3164C25.8539 23.75 24.2297 24.2857 22.5 24.2857C20.7703 24.2857 19.1531 23.75 17.6836 22.8571H17.1C12.6281 22.8571 9 27.4643 9 33.1429V35.7143C9 38.0804 10.5117 40 12.375 40H32.625C34.4883 40 36 38.0804 36 35.7143V33.1429C36 27.4643 32.3719 22.8571 27.9 22.8571ZM12.1711 21.6607C11.3555 20.6339 10.2375 20 9 20H4.5C2.01797 20 0 22.5625 0 25.7143V28.5714C0 30.1518 1.00547 31.4286 2.25 31.4286H6.88359C7.32656 27.1964 9.3375 23.6339 12.1711 21.6607Z" fill="white"/>
</svg>
